<svg xmlns="http://www.w3.org/2000/svg" width="41" height="41" viewBox="0 0 41 41">
  <g id="Grupo_13" data-name="Grupo 13" transform="translate(-79.499 -881.5)">
    <g id="Grupo_2" data-name="Grupo 2">
      <path id="Trazado_1" data-name="Trazado 1" d="M20,0A20,20,0,1,1,0,20,20,20,0,0,1,20,0Z" transform="translate(79.999 882)" fill="none" stroke="#fff" stroke-width="1"/>
      <g id="Grupo_14" data-name="Grupo 14">
        <path id="Icon_awesome-instagram" data-name="Icon awesome-instagram" d="M11.032,7.613a5.657,5.657,0,1,0,5.657,5.657A5.648,5.648,0,0,0,11.032,7.613Zm0,9.335a3.678,3.678,0,1,1,3.678-3.678,3.684,3.684,0,0,1-3.678,3.678ZM18.24,7.381A1.319,1.319,0,1,1,16.92,6.062,1.316,1.316,0,0,1,18.24,7.381Zm3.747,1.339A6.53,6.53,0,0,0,20.2,4.1a6.573,6.573,0,0,0-4.623-1.782c-1.822-.1-7.282-.1-9.1,0A6.563,6.563,0,0,0,1.855,4.093,6.551,6.551,0,0,0,.072,8.716c-.1,1.822-.1,7.282,0,9.1a6.53,6.53,0,0,0,1.782,4.623,6.581,6.581,0,0,0,4.623,1.782c1.822.1,7.282.1,9.1,0A6.53,6.53,0,0,0,20.2,22.442a6.573,6.573,0,0,0,1.782-4.623c.1-1.822.1-7.277,0-9.1ZM19.633,19.774a3.723,3.723,0,0,1-2.1,2.1c-1.452.576-4.9.443-6.5.443s-5.056.128-6.5-.443a3.723,3.723,0,0,1-2.1-2.1c-.576-1.452-.443-4.9-.443-6.5s-.128-5.056.443-6.5a3.723,3.723,0,0,1,2.1-2.1c1.452-.576,4.9-.443,6.5-.443s5.056-.128,6.5.443a3.723,3.723,0,0,1,2.1,2.1c.576,1.452.443,4.9.443,6.5S20.209,18.326,19.633,19.774Z" transform="translate(89.211 888.485)" fill="#fff"/>
      </g>
    </g>
  </g>
</svg>
