<svg xmlns="http://www.w3.org/2000/svg" width="41" height="41" viewBox="0 0 41 41">
  <g id="Grupo_28" data-name="Grupo 28" transform="translate(-330.5 -1422.5)">
    <g id="Grupo_24" data-name="Grupo 24">
      <path id="Trazado_2" data-name="Trazado 2" d="M20,0A20,20,0,1,1,0,20,20,20,0,0,1,20,0Z" transform="translate(331 1423)" fill="none" stroke="#fff" stroke-width="1"/>
    </g>
    <g id="Grupo_27" data-name="Grupo 27">
      <g id="Grupo_25" data-name="Grupo 25">
        <path id="Icon_awesome-youtube" data-name="Icon awesome-youtube" d="M22.267,6.884a2.723,2.723,0,0,0-1.916-1.928C18.662,4.5,11.885,4.5,11.885,4.5s-6.776,0-8.466.456A2.723,2.723,0,0,0,1.5,6.884a28.564,28.564,0,0,0-.453,5.25,28.564,28.564,0,0,0,.453,5.25,2.682,2.682,0,0,0,1.916,1.9c1.69.456,8.466.456,8.466.456s6.776,0,8.466-.456a2.682,2.682,0,0,0,1.916-1.9,28.564,28.564,0,0,0,.453-5.25,28.564,28.564,0,0,0-.453-5.25Zm-12.6,8.472V8.912l5.664,3.222L9.669,15.356Z" transform="translate(338.786 1430.791)" fill="#fff"/>
      </g>
    </g>
  </g>
</svg>
